<?xml version="1.0" standalone="no"?>
<!DOCTYPE svg PUBLIC "-//W3C//DTD SVG 20010904//EN"
 "http://www.w3.org/TR/2001/REC-SVG-20010904/DTD/svg10.dtd">
<svg version="1.0" xmlns="http://www.w3.org/2000/svg"
 width="148.000000pt" height="159.999811pt" viewBox="0 0 148.000000 159.999811"
 preserveAspectRatio="xMidYMid meet">
<metadata>
Created by potrace 1.16, written by Peter Selinger 2001-2019
</metadata>
<g transform="translate(-6.000000,160.000000) scale(0.100000,-0.100000)"
fill="#000000" stroke="none">
<path d="M180 1590 c0 -5 -10 -10 -22 -10 -29 0 -78 -48 -78 -76 0 -12 -6 -24
-12 -27 -10 -3 -10 -9 -1 -26 7 -11 13 -27 13 -34 0 -7 38 -52 85 -100 47 -48
85 -91 85 -97 0 -5 6 -10 14 -10 7 0 16 -9 19 -20 3 -11 12 -20 21 -20 9 0 16
-7 16 -15 0 -8 7 -15 15 -15 8 0 15 -7 15 -15 0 -8 7 -15 15 -15 8 0 15 -7 15
-16 0 -9 9 -18 20 -21 11 -3 20 -12 20 -19 0 -8 7 -14 15 -14 8 0 15 -7 15
-16 0 -9 9 -18 20 -21 11 -3 20 -12 20 -19 0 -8 7 -14 15 -14 8 0 15 -7 15
-15 0 -8 5 -15 11 -15 6 0 58 -47 115 -105 57 -58 112 -105 122 -105 10 0 23
-5 28 -10 11 -11 64 8 64 23 0 4 6 7 13 7 13 0 547 530 547 543 0 5 23 32 50
60 28 28 50 57 50 64 0 7 6 22 12 33 10 16 10 22 1 28 -6 4 -14 19 -18 34 -8
31 -30 53 -65 63 -14 4 -28 13 -32 19 -5 8 -13 8 -28 -1 -11 -7 -26 -13 -34
-13 -8 0 -59 -44 -113 -98 -54 -55 -106 -102 -115 -105 -10 -4 -18 -13 -18
-22 0 -8 -7 -15 -15 -15 -8 0 -15 -7 -15 -15 0 -8 -7 -15 -15 -15 -8 0 -15 -7
-15 -15 0 -8 -7 -15 -15 -15 -9 0 -20 -10 -25 -22 -5 -13 -54 -68 -110 -122
l-100 -100 -40 40 c-22 21 -40 45 -40 52 0 6 -7 12 -15 12 -8 0 -15 7 -15 15
0 8 -6 15 -14 15 -7 0 -16 9 -19 20 -3 11 -12 20 -21 20 -9 0 -16 7 -16 15 0
8 -6 15 -14 15 -7 0 -16 9 -19 20 -3 11 -12 20 -21 20 -9 0 -16 7 -16 15 0 8
-7 15 -15 15 -8 0 -15 7 -15 15 0 8 -6 15 -14 15 -7 0 -16 9 -19 20 -3 11 -12
20 -21 20 -9 0 -16 7 -16 15 0 8 -5 15 -11 15 -6 0 -49 38 -96 85 -47 47 -93
85 -103 85 -11 0 -22 5 -25 10 -3 6 -13 10 -21 10 -8 0 -14 -4 -14 -10z"/>
<path d="M125 851 c-17 -10 -33 -31 -39 -49 -5 -18 -13 -32 -17 -32 -5 0 -9
-13 -9 -30 0 -16 4 -30 9 -30 5 0 12 -13 16 -29 3 -17 14 -31 26 -34 10 -3 19
-12 19 -21 0 -9 7 -16 15 -16 8 0 15 -7 15 -15 0 -8 7 -15 15 -15 9 0 19 -8
22 -17 9 -23 229 -243 243 -243 5 0 10 -7 10 -15 0 -8 6 -15 13 -15 15 0 57
-44 57 -59 0 -6 7 -11 15 -11 8 0 15 -7 15 -15 0 -8 7 -15 16 -15 9 0 18 -9
21 -20 3 -11 12 -20 19 -20 8 0 14 -7 14 -15 0 -8 6 -15 13 -15 15 0 57 -44
57 -59 0 -6 7 -11 15 -11 8 0 15 -7 15 -15 0 -10 10 -15 34 -15 19 0 36 -6 39
-12 3 -10 9 -10 26 -1 11 7 28 13 37 13 17 0 606 584 617 613 3 9 13 17 21 17
8 0 17 13 21 30 4 17 11 30 16 30 5 0 9 14 9 30 0 17 -4 30 -9 30 -4 0 -12 14
-17 32 -12 42 -56 66 -119 67 l-50 1 -273 -273 -272 -273 -272 273 -273 273
-50 -1 c-28 0 -63 -8 -80 -18z"/>
</g>
</svg>
