<?xml version="1.0" standalone="no"?>
<!DOCTYPE svg PUBLIC "-//W3C//DTD SVG 20010904//EN"
 "http://www.w3.org/TR/2001/REC-SVG-20010904/DTD/svg10.dtd">
<svg version="1.0" xmlns="http://www.w3.org/2000/svg"
 width="145.080664pt" height="159.882602pt" viewBox="0 0 145.080664 159.882602"
 preserveAspectRatio="xMidYMid meet">
<metadata>
Created by potrace 1.16, written by Peter Selinger 2001-2019
</metadata>
<g transform="translate(-7.545455,159.882602) scale(0.100000,-0.100000)"
fill="#000000" stroke="none">
<path d="M752 1584 c-12 -8 -22 -24 -22 -35 0 -10 -3 -19 -7 -19 -5 0 -7 -61
-5 -136 3 -127 2 -137 -17 -154 -12 -9 -21 -21 -21 -25 0 -10 -43 -44 -56 -45
-6 0 -22 -10 -35 -22 -14 -13 -36 -28 -49 -35 -14 -7 -47 -26 -75 -43 -27 -16
-57 -32 -65 -36 -82 -33 -115 -44 -129 -44 -9 0 -29 -7 -45 -15 -15 -8 -47
-15 -71 -15 -53 0 -80 -26 -80 -80 0 -60 34 -90 102 -90 51 0 53 -1 53 -27 -1
-69 -21 -228 -30 -237 -5 -5 -10 -25 -10 -43 0 -73 -54 -290 -77 -308 -20 -16
-41 -89 -35 -121 10 -53 13 -54 252 -54 l222 0 35 35 c19 19 37 35 40 35 7 0
53 53 53 61 0 4 20 36 45 73 24 37 49 85 55 106 6 22 15 40 19 40 5 0 19 -25
32 -56 12 -31 37 -79 56 -105 18 -27 33 -52 33 -56 1 -9 47 -63 54 -63 2 0 20
-16 39 -35 l35 -35 222 0 c239 0 242 1 252 54 6 29 -18 116 -31 116 -19 0 -81
261 -81 341 0 19 -5 40 -11 46 -5 5 -13 60 -16 122 l-6 111 50 0 c38 0 54 5
71 23 30 32 36 69 18 105 -18 34 -33 42 -85 42 -20 0 -41 4 -46 9 -6 6 -28 14
-50 20 -54 13 -133 43 -173 67 -93 53 -243 157 -252 174 -5 10 -10 41 -10 68
l0 49 51 6 c54 7 89 29 89 57 0 9 5 21 12 28 9 9 9 12 0 12 -7 0 -12 9 -12 19
0 24 -39 56 -88 72 -20 6 -44 17 -52 23 -46 37 -112 46 -148 20z m91 -529 c17
-19 35 -35 40 -35 12 0 67 -43 67 -52 0 -4 -67 -8 -150 -8 -84 0 -150 4 -150
9 0 5 17 20 38 32 20 12 52 37 71 56 19 18 38 33 43 33 5 0 23 -16 41 -35z
m-124 -309 c1 -24 -3 -47 -9 -51 -5 -3 -10 -23 -10 -43 -1 -110 -95 -337 -183
-443 l-32 -39 -87 0 c-49 0 -88 4 -88 9 0 5 4 20 9 33 5 13 16 68 26 123 9 55
20 105 24 110 5 6 13 66 20 135 6 69 14 144 17 168 l5 42 153 0 152 0 3 -44z
m481 7 c0 -63 22 -257 31 -278 5 -11 14 -54 19 -95 6 -41 17 -103 25 -138 8
-35 15 -65 15 -68 0 -2 -38 -4 -85 -4 -83 0 -86 1 -115 32 -17 18 -49 69 -71
113 -23 44 -45 85 -49 90 -8 11 -41 121 -59 198 -6 26 -11 79 -11 117 l0 70
150 0 150 0 0 -37z"/>
</g>
</svg>
