<?xml version="1.0" standalone="no"?>
<!DOCTYPE svg PUBLIC "-//W3C//DTD SVG 20010904//EN"
 "http://www.w3.org/TR/2001/REC-SVG-20010904/DTD/svg10.dtd">
<svg version="1.0" xmlns="http://www.w3.org/2000/svg"
 width="159.399139pt" height="159.330613pt" viewBox="0 0 159.399139 159.330613"
 preserveAspectRatio="xMidYMid meet">
<metadata>
Created by potrace 1.16, written by Peter Selinger 2001-2019
</metadata>
<g transform="translate(0.115581,160.047055) scale(0.100000,-0.100000)"
fill="#000000" stroke="none">
<path d="M26 1575 c-43 -39 -36 -79 24 -142 28 -29 50 -55 50 -59 0 -7 27 -34
35 -34 4 0 13 -6 20 -14 12 -11 12 -19 2 -40 -7 -14 -15 -26 -19 -26 -10 0
-92 -172 -90 -187 2 -7 -1 -13 -6 -13 -15 0 -42 -170 -42 -263 0 -88 22 -221
41 -243 6 -7 8 -18 4 -24 -3 -5 -1 -10 4 -10 6 0 11 -7 11 -16 0 -20 60 -133
82 -156 10 -10 18 -21 18 -25 0 -13 57 -73 69 -73 6 0 11 -4 11 -9 0 -11 71
-81 82 -81 4 0 33 -17 65 -37 32 -20 84 -45 117 -55 33 -10 64 -22 70 -27 51
-39 361 -39 438 0 9 4 45 18 79 29 35 12 94 41 131 66 38 24 71 44 74 44 7 0
54 -48 54 -55 0 -9 27 -35 36 -35 5 0 28 -19 51 -42 37 -37 48 -42 83 -41 51
2 71 22 73 73 1 35 -4 46 -41 83 -23 23 -42 46 -42 51 0 9 -26 36 -35 36 -8 0
-55 47 -55 55 0 8 -27 35 -35 35 -8 0 -55 47 -55 55 0 9 -27 35 -37 35 -13 0
-173 164 -173 178 0 6 -5 12 -10 12 -12 0 -60 45 -60 55 0 8 -27 35 -35 35 -8
0 -55 47 -55 55 0 10 -27 35 -38 35 -10 0 -222 215 -222 225 0 8 -27 35 -35
35 -3 0 -17 11 -30 25 -14 13 -25 27 -25 30 0 9 -27 35 -37 35 -10 0 -223 214
-223 224 0 9 -26 36 -35 36 -8 0 -55 47 -55 55 0 8 -27 35 -34 35 -4 0 -30 22
-59 50 -61 58 -98 65 -141 25z m352 -469 c40 -40 72 -77 72 -81 0 -8 26 -35
35 -35 8 0 55 -47 55 -55 0 -8 27 -35 35 -35 13 0 225 -214 225 -227 0 -7 5
-13 10 -13 15 0 12 -26 -5 -40 -24 -20 -19 -84 9 -117 23 -26 30 -28 113 -31
l88 -4 73 -71 c39 -39 72 -78 72 -87 -1 -21 -165 -99 -247 -116 -158 -33 -273
-10 -462 90 -34 19 -166 153 -181 184 -13 28 -18 39 -52 104 -24 46 -36 99
-44 203 -6 74 15 207 41 255 7 14 27 53 44 88 17 34 34 62 39 62 5 0 41 -33
80 -74z"/>
<path d="M844 411 c-53 -23 -73 -111 -34 -146 22 -20 101 -31 152 -21 80 16
108 90 55 143 -22 23 -37 27 -89 30 -35 1 -73 -1 -84 -6z"/>
<path d="M605 1584 c-33 -8 -84 -26 -113 -39 -29 -14 -55 -25 -58 -25 -3 0
-14 -9 -26 -20 -30 -27 -28 -90 3 -121 19 -19 33 -23 69 -22 25 1 49 8 55 16
5 7 21 16 35 20 14 3 52 13 85 21 131 34 308 12 407 -51 21 -12 44 -23 51 -23
31 0 217 -186 217 -217 0 -7 12 -32 27 -56 14 -23 25 -42 24 -42 -2 0 2 -11 7
-25 21 -54 32 -124 32 -198 -1 -82 -20 -183 -41 -208 -6 -8 -9 -17 -5 -21 3
-3 -1 -15 -11 -25 -22 -24 -22 -100 0 -122 8 -9 25 -16 35 -16 11 0 22 -6 25
-12 4 -10 7 -10 18 0 7 6 21 12 30 12 18 0 69 89 69 120 0 8 6 24 13 35 44 65
50 349 9 455 -3 8 -6 17 -7 20 -1 3 -7 18 -13 33 -7 16 -12 31 -12 35 0 13
-55 117 -72 136 -10 11 -18 25 -18 31 0 13 -69 85 -81 85 -5 0 -9 5 -9 11 0
12 -60 69 -72 69 -5 0 -16 8 -26 18 -22 21 -136 82 -154 82 -7 0 -26 7 -43 16
-82 42 -324 57 -450 28z"/>
<path d="M812 1337 c-32 -34 -30 -89 5 -122 24 -22 36 -25 98 -25 53 1 75 5
92 19 30 25 42 60 32 96 -11 40 -47 55 -134 55 -62 0 -74 -3 -93 -23z"/>
<path d="M817 1102 c-18 -18 -27 -39 -27 -59 0 -84 25 -93 242 -93 188 1 206
5 237 55 15 27 16 32 2 59 -33 68 -27 66 -236 66 l-191 0 -27 -28z"/>
<path d="M1073 881 c-48 -21 -61 -94 -25 -136 29 -33 55 -38 168 -33 116 5
138 20 136 92 -1 71 -15 79 -146 83 -61 2 -121 -1 -133 -6z"/>
</g>
</svg>
