<?xml version="1.0" standalone="no"?>
<!DOCTYPE svg PUBLIC "-//W3C//DTD SVG 20010904//EN"
 "http://www.w3.org/TR/2001/REC-SVG-20010904/DTD/svg10.dtd">
<svg version="1.0" xmlns="http://www.w3.org/2000/svg"
 width="159.485539pt" height="105.058560pt" viewBox="0 0 159.485539 105.058560"
 preserveAspectRatio="xMidYMid meet">
<metadata>
Created by potrace 1.16, written by Peter Selinger 2001-2019
</metadata>
<g transform="translate(0.013717,132.946326) scale(0.100000,-0.100000)"
fill="#000000" stroke="none">
<path d="M1034 1318 c-45 -22 -58 -98 -23 -142 l20 -26 218 0 c214 0 218 0
239 23 33 35 30 102 -5 133 -27 24 -32 24 -228 23 -116 0 -209 -5 -221 -11z"/>
<path d="M22 867 c-21 -23 -22 -30 -22 -283 0 -325 -11 -304 155 -304 124 0
120 -1 168 64 13 17 17 16 96 -24 l83 -41 446 3 c471 3 454 2 515 48 108 82
152 196 123 318 -23 99 -76 167 -166 214 -45 23 -46 23 -480 26 l-434 3 -66
-33 c-36 -17 -72 -38 -81 -45 -14 -12 -21 -8 -53 32 l-37 45 -113 0 c-105 0
-114 -2 -134 -23z m196 -191 c60 -78 71 -79 217 -7 l122 61 378 0 378 0 42
-25 c101 -59 96 -199 -9 -249 -49 -23 -769 -24 -822 -1 -19 8 -50 22 -69 30
-19 9 -35 20 -35 25 0 6 -6 10 -13 10 -7 0 -32 9 -56 20 -59 29 -84 18 -144
-62 -15 -21 -32 -38 -38 -38 -5 0 -9 60 -9 145 0 80 4 145 9 145 5 0 27 -24
49 -54z"/>
</g>
</svg>
